<?xml version="1.0" encoding="utf-8"?>
<!-- Generator: Adobe Illustrator 16.0.0, SVG Export Plug-In . SVG Version: 6.00 Build 0)  -->
<!DOCTYPE svg PUBLIC "-//W3C//DTD SVG 1.1//EN" "http://www.w3.org/Graphics/SVG/1.1/DTD/svg11.dtd">
<svg version="1.1" xmlns="http://www.w3.org/2000/svg" xmlns:xlink="http://www.w3.org/1999/xlink" x="0px" y="0px" width="1236px"
	 height="1285.254px" viewBox="0 0 1236 1285.254" enable-background="new 0 0 1236 1285.254" xml:space="preserve">
<g id="references" display="none">
</g>
<g id="Layer_2">
	<g>
		<rect x="204" y="150.254" fill-rule="evenodd" clip-rule="evenodd" fill="#010100" width="890" height="890"/>
		<path fill="#F1CA02" d="M844.293,300.872"/>
		<line fill="#F1CA02" x1="447.563" y1="301" x2="447.422" y2="301.141"/>
		<line fill="#F1CA02" x1="361.83" y1="386.73" x2="361.695" y2="386.865"/>
		<line fill="#F1CA02" x1="850.58" y1="657.868" x2="850.91" y2="657.538"/>
		<path fill="#F1CA02" d="M731.848,657.925"/>
		<path fill="#F1CA02" d="M553.721,618.24c-0.01,0.077-0.069,0.167-0.079,0.244C552.836,628.392,553.721,618.24,553.721,618.24z"/>
		<line fill="#F1CA02" x1="923.279" y1="585.166" x2="923.457" y2="584.985"/>
		<path fill="#F1CA02" d="M751.69,538.866"/>
		<path fill="#F1CA02" d="M751.69,413.19"/>
		<path fill="#F1CA02" d="M996.43,168.452H308.518c-43.838,0-79.375,35.54-79.375,79.374v694.527
			c0,43.834,35.537,79.374,79.375,79.374H996.43c43.838,0,79.373-35.54,79.373-79.374V247.825
			C1075.803,203.991,1040.268,168.452,996.43,168.452z M305.83,980.384c-17.012,0-30.798-13.791-30.798-30.799
			c0-17.007,13.786-30.798,30.798-30.798c17.011,0,30.8,13.791,30.8,30.798C336.63,966.594,322.841,980.384,305.83,980.384z
			 M305.83,266.015c-17.012,0-30.798-13.791-30.798-30.798s13.786-30.799,30.798-30.799c17.011,0,30.8,13.792,30.8,30.799
			S322.841,266.015,305.83,266.015z M731.848,909.278H553.254V796.833h178.594V909.278z M923.67,571.938h-0.391L850.91,644.31v0.387
			H731.848V750.53H553.254V605.011h0.467c0.441-3.32,4.314-7.042,6.26-9.406c13.983-16.988,63.911-67.003,65.232-70.177
			c0.371,0.086,0.732,0.129,1.105,0.207H751.69V399.959H533.409v125.676H361.434V373.502h0.396l85.592-85.589v-0.399h396.871v0.129
			c3.271,0.735,79.377,92.473,79.377,92.473v0.367l0.004,0.009C923.672,380.503,923.67,571.938,923.67,571.938z M1021.439,983.28
			c-16.322,0-29.559-13.237-29.559-29.559c0-16.325,13.236-29.559,29.559-29.559c16.321,0,29.559,13.234,29.559,29.559
			C1050.998,970.042,1037.761,983.28,1021.439,983.28z M1021.439,268.908c-16.322,0-29.559-13.234-29.559-29.557
			c0-16.324,13.236-29.559,29.559-29.559c16.321,0,29.559,13.234,29.559,29.559C1050.998,255.674,1037.761,268.908,1021.439,268.908
			z"/>
		<path fill="#F1CA02" d="M626.318,538.866h-0.305C626.014,538.866,628.58,539.336,626.318,538.866z"/>
		<g>
			<rect x="542.235" y="785.805" fill="#F9FFF6" width="178.595" height="112.448"/>
			<path fill="#F9FFF6" d="M912.65,560.91h-0.391l-72.369,72.375v0.388H720.83v105.831H542.235V593.984h0.466
				c0.441-3.32,4.314-7.042,6.261-9.406c13.98-16.988,63.91-67.003,65.229-70.174c0.373,0.083,0.736,0.129,1.109,0.207h125.371
				V388.934H522.391V514.61H350.414V362.474h0.396l85.592-85.586v-0.402h396.871v0.129c3.271,0.737,79.377,92.473,79.377,92.473
				v0.37l0.006,0.005C912.65,369.479,912.65,560.91,912.65,560.91z"/>
		</g>
	</g>
</g>
</svg>
